<svg xmlns="http://www.w3.org/2000/svg" width="296" height="48" viewBox="0 0 296 48" fill="none"><path d="M77.8114 12.1924V35.8592H74.1648V22.7619L70.0875 35.8592H66.7388L62.6615 22.7619V35.8592H59.0117V12.1924H62.6615L68.4132 30.513L74.1648 12.1924H77.8114Z" fill="#FC8207"/><path d="M93.522 35.8592H89.8722L89.1435 29.9021H85.2379L84.5092 35.8592H80.8594L83.7384 12.1924H90.6494L93.5253 35.8592H93.522ZM88.7581 26.4338L87.4271 15.6218H86.9543L85.6233 26.4338H88.7549H88.7581Z" fill="#FC8207"/><path d="M105.409 19.5361V18.8024C105.409 18.421 105.399 18.0428 105.39 17.6614C105.373 17.28 105.325 16.9406 105.237 16.64C105.15 16.3394 105.008 16.097 104.807 15.9063C104.606 15.7156 104.334 15.6218 103.991 15.6218H101.157C100.817 15.6218 100.542 15.7188 100.341 15.9063C100.143 16.097 99.9975 16.3426 99.9101 16.64C99.8227 16.9374 99.7741 17.28 99.7611 17.6614C99.7449 18.0428 99.7417 18.421 99.7417 18.8024V29.2491C99.7417 29.6305 99.7482 30.0087 99.7611 30.3901C99.7741 30.7715 99.8227 31.1109 99.9101 31.4115C99.9975 31.7121 100.14 31.9578 100.341 32.1453C100.542 32.336 100.814 32.4297 101.157 32.4297H103.991C104.334 32.4297 104.606 32.336 104.807 32.1453C105.008 31.9546 105.15 31.7121 105.237 31.4115C105.325 31.1142 105.373 30.7748 105.39 30.3901C105.403 30.0087 105.409 29.6305 105.409 29.2491V28.5154H109.059V30.8006C109.059 31.5085 108.984 32.1743 108.842 32.8014C108.699 33.4285 108.457 33.9618 108.113 34.4143C107.77 34.8636 107.32 35.2159 106.763 35.4745C106.206 35.7331 105.526 35.8624 104.723 35.8624H100.431C99.6024 35.8624 98.9126 35.7331 98.3718 35.4745C97.8277 35.2159 97.3905 34.8636 97.0634 34.4143C96.7331 33.965 96.4967 33.4285 96.3542 32.8014C96.2085 32.1743 96.1372 31.5085 96.1372 30.8006V17.2541C96.1372 16.5463 96.2085 15.8804 96.3542 15.2534C96.4967 14.6263 96.7299 14.093 97.0634 13.6404C97.3905 13.1912 97.8277 12.8388 98.3718 12.5803C98.9159 12.3217 99.6024 12.1924 100.431 12.1924H104.723C105.522 12.1924 106.206 12.3217 106.763 12.5803C107.32 12.8388 107.77 13.1912 108.113 13.6404C108.457 14.0897 108.699 14.6263 108.842 15.2534C108.984 15.8804 109.059 16.5463 109.059 17.2541V19.5394H105.409V19.5361Z" fill="#FC8207"/><path d="M125.453 12.1924V35.8592H121.804V27.0447H116.182V35.8592H112.532V12.1924H116.182V23.6185H121.804V12.1924H125.453Z" fill="#FC8207"/><path d="M132.58 12.1924V35.8592H128.93V12.1924H132.58Z" fill="#FC8207"/><path d="M148.932 12.2344V35.8591H145.327L139.663 20.968V35.8591H136.055V12.2344H139.663L145.327 27.1255V12.2344H148.932Z" fill="#FC8207"/><path d="M164.985 15.6218H156.057V23.6185H162.754V27.0447H156.057V32.4297H165.069V35.8592H152.407V12.1924H165.069V15.6218H164.982H164.985Z" fill="#FC8207"/><path d="M182.113 35.8592H177.994L173.016 27.0447H171.986V35.8592H168.336V12.1924H176.663C177.492 12.1924 178.185 12.3217 178.745 12.5803C179.302 12.8388 179.746 13.1912 180.073 13.6404C180.403 14.0897 180.64 14.6263 180.782 15.2534C180.928 15.8804 180.999 16.5463 180.999 17.2541V21.9894C180.999 23.347 180.721 24.5041 180.16 25.4577C179.603 26.4112 178.596 26.9413 177.136 27.0479L182.113 35.8624V35.8592ZM175.934 23.6185C176.306 23.6185 176.585 23.5215 176.773 23.3308C176.957 23.1401 177.093 22.8977 177.181 22.5971C177.268 22.2997 177.317 21.9506 177.333 21.5563C177.346 21.162 177.352 20.7741 177.352 20.3927V18.8024C177.352 18.421 177.343 18.0428 177.333 17.6614C177.317 17.28 177.268 16.9406 177.181 16.64C177.093 16.3394 176.957 16.097 176.773 15.9063C176.585 15.7156 176.306 15.6218 175.934 15.6218H171.986V23.6185H175.934Z" fill="#FC8207"/><path d="M195.843 12.1924L191.206 26.0265V35.8592H187.556V26.0265L182.918 12.1924H186.568L189.402 20.5995L192.19 12.1924H195.84H195.843Z" fill="#FC8207"/><path d="M208.748 12.3379C208.842 12.3379 208.887 12.3702 208.887 12.4381V35.6265C208.887 35.717 208.842 35.759 208.748 35.759H205.12C205.052 35.759 205.017 35.7138 205.017 35.6265V25.4222C205.017 25.3349 204.968 25.2896 204.878 25.2896H201.111C201.089 25.2896 201.04 25.322 200.972 25.3898V35.6297C200.972 35.7202 200.936 35.7622 200.865 35.7622H197.206C197.134 35.7622 197.099 35.717 197.099 35.6297V12.4381C197.099 12.3734 197.134 12.3379 197.206 12.3379H200.865C200.936 12.3379 200.972 12.3702 200.972 12.4381V22.1414C200.972 22.2319 201.017 22.2772 201.111 22.2772H204.878C204.968 22.2772 205.017 22.2319 205.017 22.1414V12.4381C205.017 12.3734 205.052 12.3379 205.12 12.3379H208.748Z" fill="white"/><path d="M224.024 12.3027C224.118 12.3027 224.164 12.3351 224.164 12.4029V32.679C224.164 33.1251 224.076 33.5388 223.898 33.917C223.723 34.2952 223.48 34.6313 223.176 34.9222C222.872 35.2099 222.512 35.4394 222.104 35.6075C221.693 35.7756 221.262 35.8596 220.818 35.8596H216.135C215.666 35.8596 215.232 35.7756 214.834 35.6075C214.432 35.4394 214.082 35.2099 213.778 34.9222C213.473 34.6346 213.234 34.2952 213.056 33.917C212.881 33.5356 212.79 33.1251 212.79 32.679V12.4029C212.79 12.3383 212.835 12.3027 212.929 12.3027H216.556C216.624 12.3027 216.66 12.3351 216.66 12.4029V32.6467C216.66 32.734 216.705 32.7792 216.799 32.7792H220.145C220.235 32.7792 220.284 32.734 220.284 32.6467V12.4029C220.284 12.3383 220.32 12.3027 220.388 12.3027H224.015H224.024Z" fill="white"/><path d="M236.73 12.3027C237.174 12.3027 237.605 12.3868 238.016 12.5549C238.424 12.7229 238.777 12.946 239.072 13.2239C239.366 13.5019 239.599 13.8381 239.774 14.2292C239.949 14.6203 240.04 15.0372 240.04 15.4833V35.7594C240.04 35.8273 240.004 35.8596 239.936 35.8596H236.274C236.206 35.8596 236.17 35.8273 236.17 35.7594V15.4187C236.17 15.3508 236.134 15.3185 236.066 15.3185H231.982C231.914 15.3185 231.879 15.3508 231.879 15.4187V35.7594C231.879 35.8273 231.843 35.8596 231.775 35.8596H228.112C228.044 35.8596 228.009 35.8273 228.009 35.7594V15.4833C228.009 15.0405 228.096 14.6203 228.274 14.2292C228.452 13.8381 228.682 13.5051 228.977 13.2239C229.269 12.946 229.615 12.7229 230.013 12.5549C230.412 12.3868 230.846 12.3027 231.315 12.3027H231.283H236.74H236.73Z" fill="white"/><path d="M253.87 12.3027C253.941 12.3027 253.977 12.348 253.977 12.4353V15.1795C253.977 15.27 253.928 15.312 253.834 15.312H250.035V35.7885C250.035 35.8564 249.987 35.8887 249.893 35.8887H246.269C246.198 35.8887 246.162 35.8564 246.162 35.7885V15.312H242.292C242.221 15.312 242.188 15.2667 242.188 15.1795V12.4353C242.188 12.348 242.221 12.3027 242.292 12.3027H253.873H253.87Z" fill="white"/><path d="M266.118 15.1792C266.118 15.2697 266.083 15.3117 266.015 15.3117H260.066V21.4013H265.309C265.403 21.4013 265.448 21.4466 265.448 21.5338V23.9774C265.448 24.0453 265.403 24.0776 265.309 24.0776H260.066V32.7434H265.73C265.824 32.7434 265.872 32.7757 265.872 32.8436V35.7526C265.872 35.8205 265.824 35.8528 265.73 35.8528H256.335C256.241 35.8528 256.192 35.8205 256.192 35.7526V12.4382C256.192 12.3509 256.241 12.3057 256.335 12.3057H266.015C266.083 12.3057 266.118 12.3509 266.118 12.4382V15.1824V15.1792Z" fill="white"/><path d="M281.007 20.2348C281.007 20.7713 280.891 21.2174 280.654 21.5729C280.421 21.9285 280.149 22.2129 279.845 22.4262C279.54 22.6396 279.233 22.7883 278.928 22.8788C278.624 22.9693 278.4 23.0242 278.261 23.0468C278.4 23.0468 278.624 23.0598 278.928 23.0792C279.233 23.1018 279.537 23.202 279.845 23.3798C280.149 23.5575 280.418 23.8291 280.654 24.1975C280.887 24.566 281.007 25.0832 281.007 25.7523V35.7238C281.007 35.8111 280.972 35.8564 280.9 35.8564H277.277C277.183 35.8564 277.134 35.8111 277.134 35.7238V27.0904C277.111 26.5765 277.017 26.1207 276.852 25.7167C276.713 25.3805 276.499 25.0702 276.221 24.7793C275.939 24.4917 275.541 24.3462 275.023 24.3462H272.947C272.898 24.3915 272.866 24.4367 272.843 24.4787V35.7529C272.843 35.8208 272.817 35.8531 272.772 35.8531H269.077C269.005 35.8531 268.97 35.8208 268.97 35.7529V12.4029C268.97 12.3383 269.005 12.3027 269.077 12.3027H277.662C278.109 12.3027 278.53 12.3803 278.931 12.5387C279.33 12.6938 279.676 12.9039 279.968 13.1754C280.262 13.4437 280.502 13.754 280.69 14.1128C280.878 14.4684 280.985 14.8595 281.007 15.2829V20.2348ZM277.134 15.4187C277.134 15.3508 277.102 15.3185 277.03 15.3185H272.982C272.911 15.3185 272.866 15.3508 272.843 15.4187V21.5762C272.843 21.6408 272.888 21.6764 272.982 21.6764H275.023C275.184 21.6764 275.392 21.6602 275.638 21.6279C275.884 21.5955 276.117 21.4953 276.341 21.3273C276.564 21.1592 276.749 20.9038 276.901 20.558C277.053 20.2121 277.131 19.7273 277.131 19.1002V15.4219L277.134 15.4187Z" fill="white"/><path d="M295.611 24.1128C295.87 24.2712 296 24.5039 296 24.8175V32.7462C296 33.1697 295.912 33.5705 295.734 33.9519C295.559 34.3301 295.316 34.6597 295.012 34.9377C294.708 35.2157 294.348 35.4387 293.937 35.6068C293.525 35.7749 293.098 35.8589 292.651 35.8589H287.971C287.502 35.8589 287.061 35.7749 286.65 35.6068C286.239 35.4387 285.886 35.2157 285.594 34.9377C285.303 34.6597 285.066 34.3301 284.892 33.9519C284.717 33.5705 284.626 33.1697 284.626 32.7462V27.8267H288.289V32.6784C288.289 32.7462 288.324 32.7786 288.392 32.7786H292.02C292.091 32.7786 292.123 32.7462 292.123 32.6784V26.4918C292.101 26.4692 292.084 26.453 292.071 26.4401C292.058 26.4304 292.032 26.411 291.984 26.3916C291.822 26.3043 291.556 26.1524 291.19 25.9391C290.828 25.729 290.41 25.4898 289.94 25.2183C289.471 24.95 288.985 24.672 288.48 24.3843C287.975 24.0934 287.508 23.8219 287.074 23.5633C286.637 23.308 286.274 23.0946 285.983 22.9266C285.691 22.7585 285.52 22.6551 285.471 22.6066C285.283 22.4967 285.144 22.3351 285.05 22.1217C284.956 21.9116 284.911 21.7048 284.911 21.5011V15.4115C284.911 14.9881 284.998 14.5873 285.177 14.2059C285.351 13.8277 285.585 13.498 285.879 13.22C286.171 12.9421 286.517 12.719 286.916 12.5509C287.314 12.3829 287.748 12.2988 288.217 12.2988H292.408C292.852 12.2988 293.283 12.3829 293.694 12.5509C294.105 12.719 294.455 12.9421 294.75 13.22C295.041 13.498 295.274 13.8277 295.452 14.2059C295.627 14.5873 295.718 14.9881 295.718 15.4115V18.6567H292.058V15.4115C292.058 15.3436 292.01 15.3113 291.919 15.3113H288.891C288.823 15.3113 288.787 15.3436 288.787 15.4115V19.7945C288.787 19.927 288.81 20.0272 288.859 20.0951C288.881 20.1856 288.94 20.2502 289.034 20.2955C289.079 20.3181 289.115 20.3407 289.137 20.3601C290.31 21.0518 291.365 21.666 292.305 22.2025C292.706 22.4482 293.098 22.6777 293.483 22.8878C293.872 23.1011 294.218 23.2951 294.52 23.4728C294.824 23.6506 295.077 23.7961 295.277 23.906C295.475 24.0191 295.588 24.0837 295.614 24.1064L295.611 24.1128Z" fill="white"/><path d="M24.0502 0C37.38 0.0452519 48.1092 10.7247 48.0995 23.9835C48.0898 37.4007 37.2763 48.0931 23.8559 47.9994C10.4743 47.9024 -0.112447 36.9773 0.000901721 23.7928C0.11425 10.8088 10.6395 0.0517165 24.0502 0ZM3.11636 24.0126C3.06455 35.4872 12.4984 44.8835 24.021 44.9029C35.3753 44.9255 45.0035 35.7458 45.0002 23.9965C44.997 12.315 35.4498 3.09653 24.047 3.10622C12.4401 3.11592 3.05483 12.58 3.1196 24.0126H3.11636Z" fill="#FC8207"/><path d="M23.0565 27.0928H32.4806C32.4904 26.915 32.5066 26.7502 32.5066 26.5853C32.5066 21.9955 32.5066 17.4089 32.5066 12.8191C32.5066 12.6995 32.5001 12.5831 32.5098 12.4635C32.5292 12.2308 32.649 12.1112 32.8822 12.0756C32.947 12.0659 33.015 12.0692 33.0798 12.0692C34.3979 12.0692 35.7159 12.0692 37.034 12.0692C37.0988 12.0692 37.1668 12.0659 37.2316 12.0724C37.4809 12.1047 37.6008 12.2308 37.6202 12.4829C37.6267 12.5863 37.6202 12.693 37.6202 12.7997C37.6202 20.2695 37.6202 27.736 37.6202 35.2058C37.6202 35.8975 37.5813 35.9363 36.8753 35.9363C35.6512 35.9363 34.4238 35.9363 33.1996 35.9363C33.1089 35.9363 33.015 35.9428 32.9243 35.9363C32.6491 35.9137 32.526 35.7909 32.5066 35.5161C32.5001 35.4256 32.5066 35.3319 32.5066 35.2414C32.5066 34.401 32.5066 33.5574 32.5066 32.717V32.3033C32.1633 32.216 23.4354 32.2063 23.0112 32.2871C23.0047 32.4196 22.995 32.5586 22.995 32.7008C22.995 33.5962 22.995 34.4883 22.995 35.3836C22.995 35.8329 22.8849 35.9396 22.4347 35.9396C21.1296 35.9396 19.8245 35.9396 18.5194 35.9396C17.9591 35.9396 17.8781 35.8588 17.8781 35.306C17.8781 30.0471 17.8781 24.7882 17.8781 19.526C17.8781 18.8957 17.8781 18.2622 17.8781 17.6319C17.8781 17.5026 17.8652 17.3766 17.8587 17.202C17.1138 17.1794 16.4014 17.1697 15.6403 17.2085V17.758C15.6403 23.5696 15.6403 29.3813 15.6403 35.1929C15.6403 35.8975 15.5982 35.9396 14.9116 35.9396C13.6583 35.9396 12.4083 35.9396 11.1549 35.9396C10.6141 35.9396 10.5234 35.8523 10.5234 35.3351C10.5234 27.7878 10.5234 20.2404 10.5234 12.693C10.5234 12.1726 10.6206 12.0756 11.1485 12.0756C17.3308 12.0756 23.5099 12.0756 29.6923 12.0756C30.2072 12.0756 30.3238 12.1855 30.3238 12.6995C30.3238 16.617 30.3238 20.5345 30.3238 24.4553C30.3238 24.5458 30.3173 24.6395 30.3011 24.73C30.2623 24.9207 30.1392 25.0274 29.9481 25.05C29.8445 25.0629 29.7376 25.0565 29.6307 25.0565C28.3774 25.0565 27.1274 25.0565 25.8741 25.0565C25.262 25.0565 25.1778 24.9724 25.1778 24.3421C25.1778 22.1345 25.1778 19.9236 25.1778 17.716V17.2214H23.063C22.9723 17.5479 22.9626 26.7049 23.0533 27.0993L23.0565 27.0928Z" fill="white"/><path d="M24.0502 0C37.38 0.0452519 48.1092 10.7247 48.0995 23.9835C48.0898 37.4007 37.2763 48.0931 23.8559 47.9994C10.4743 47.9024 -0.112447 36.9773 0.000901721 23.7928C0.11425 10.8088 10.6395 0.0517165 24.0502 0ZM3.11636 24.0126C3.06455 35.4872 12.4984 44.8835 24.021 44.9029C35.3753 44.9255 45.0035 35.7458 45.0002 23.9965C44.997 12.315 35.4498 3.09653 24.047 3.10622C12.4401 3.11592 3.05483 12.58 3.1196 24.0126H3.11636Z" fill="#FC8207"/><path d="M23.0565 27.0928H32.4806C32.4904 26.915 32.5066 26.7502 32.5066 26.5853C32.5066 21.9955 32.5066 17.4089 32.5066 12.8191C32.5066 12.6995 32.5001 12.5831 32.5098 12.4635C32.5292 12.2308 32.649 12.1112 32.8822 12.0756C32.947 12.0659 33.015 12.0692 33.0798 12.0692C34.3979 12.0692 35.7159 12.0692 37.034 12.0692C37.0988 12.0692 37.1668 12.0659 37.2316 12.0724C37.4809 12.1047 37.6008 12.2308 37.6202 12.4829C37.6267 12.5863 37.6202 12.693 37.6202 12.7997C37.6202 20.2695 37.6202 27.736 37.6202 35.2058C37.6202 35.8975 37.5813 35.9363 36.8753 35.9363C35.6512 35.9363 34.4238 35.9363 33.1996 35.9363C33.1089 35.9363 33.015 35.9428 32.9243 35.9363C32.6491 35.9137 32.526 35.7909 32.5066 35.5161C32.5001 35.4256 32.5066 35.3319 32.5066 35.2414C32.5066 34.401 32.5066 33.5574 32.5066 32.717V32.3033C32.1633 32.216 23.4354 32.2063 23.0112 32.2871C23.0047 32.4196 22.995 32.5586 22.995 32.7008C22.995 33.5962 22.995 34.4883 22.995 35.3836C22.995 35.8329 22.8849 35.9396 22.4347 35.9396C21.1296 35.9396 19.8245 35.9396 18.5194 35.9396C17.9591 35.9396 17.8781 35.8588 17.8781 35.306C17.8781 30.0471 17.8781 24.7882 17.8781 19.526C17.8781 18.8957 17.8781 18.2622 17.8781 17.6319C17.8781 17.5026 17.8652 17.3766 17.8587 17.202C17.1138 17.1794 16.4014 17.1697 15.6403 17.2085V17.758C15.6403 23.5696 15.6403 29.3813 15.6403 35.1929C15.6403 35.8975 15.5982 35.9396 14.9116 35.9396C13.6583 35.9396 12.4083 35.9396 11.1549 35.9396C10.6141 35.9396 10.5234 35.8523 10.5234 35.3351C10.5234 27.7878 10.5234 20.2404 10.5234 12.693C10.5234 12.1726 10.6206 12.0756 11.1485 12.0756C17.3308 12.0756 23.5099 12.0756 29.6923 12.0756C30.2072 12.0756 30.3238 12.1855 30.3238 12.6995C30.3238 16.617 30.3238 20.5345 30.3238 24.4553C30.3238 24.5458 30.3173 24.6395 30.3011 24.73C30.2623 24.9207 30.1392 25.0274 29.9481 25.05C29.8445 25.0629 29.7376 25.0565 29.6307 25.0565C28.3774 25.0565 27.1274 25.0565 25.8741 25.0565C25.262 25.0565 25.1778 24.9724 25.1778 24.3421C25.1778 22.1345 25.1778 19.9236 25.1778 17.716V17.2214H23.063C22.9723 17.5479 22.9626 26.7049 23.0533 27.0993L23.0565 27.0928Z" fill="white"/></svg>